# xmcd
#
# Track frame offsets:
#	162
#	9952
#	23270
#	35140
#	46802
#	58322
#	73010
#	87747
#	98747
#	116610
#	125892
#	137742
#	150045
#	163187
#	175587
#	187250
#	204837
#	213915
#
# Disc length: 2990 seconds
#
# Revision: 0
# Processed by: cddbd v1.5.2PL0 Copyright (c) Steve Scherf et al.
# Submitted via: EasyCDDAExtractor 15.3.0.1
#
DISCID=f30bac12
DTITLE=Diverse - Music goes on this is soul
DYEAR=1900
DGENRE=soul
TTITLE0=The Drifters - Save the last dance for me
TTITLE1=Eddie Floyd - Knock on wood
TTITLE2=Sam and Dave - Hold on I'm comin'
TTITLE3=Brook Benton - Kiddio
TTITLE4=The Tams - Hey girl don't bother me
TTITLE5=Percy Sledge - Warm and tender love
TTITLE6=George McCrae - Rock your baby
TTITLE7=Brook Benton - It's just a matter
TTITLE8=Brook Benton - Rainy night in Georgia
TTITLE9=Gladys Knight - Every beat of my heart
TTITLE10=The Drifters - Under the boardwalk
TTITLE11=Archie Bell and The Drells - Tighten up
TTITLE12=Percy Sledge - When a man loves a woman
TTITLE13=Wilbert Harrison - Let's stick together
TTITLE14=The Tams - What kind of fool
TTITLE15=James Brown - Please please please
TTITLE16=The Drifters - Saturday night at the movies
TTITLE17=Sam and Dave - Soul sister brown sugar
EXTD=
EXTT0=
EXTT1=
EXTT2=
EXTT3=
EXTT4=
EXTT5=
EXTT6=
EXTT7=
EXTT8=
EXTT9=
EXTT10=
EXTT11=
EXTT12=
EXTT13=
EXTT14=
EXTT15=
EXTT16=
EXTT17=
PLAYORDER=
